<svg width="751" height="206" viewBox="0 0 751 206" fill="none" xmlns="http://www.w3.org/2000/svg">
<mask id="mask0" mask-type="alpha" maskUnits="userSpaceOnUse" x="0" y="0" width="751" height="206">
<path fill-rule="evenodd" clip-rule="evenodd" d="M536.271 119.249C535.943 121.985 535.779 124.737 535.779 127.494C535.779 127.928 535.784 128.367 535.779 128.801V190.228H559.192V128.843C559.197 128.436 559.192 127.965 559.192 127.494C559.192 125.155 559.377 122.816 559.748 120.508C563.013 100.122 580.128 85.1402 600.117 85.1402H604.371V60.9177H600.117C567.681 60.9177 540.246 85.9605 536.271 119.249Z" fill="#EEEEEE" stroke="#EEEEEE" stroke-width="8" stroke-miterlimit="10"/>
<path d="M28.6997 60.9177H5.29224V190.228H28.6997V60.9177Z" fill="#EEEEEE" stroke="#EEEEEE" stroke-width="8" stroke-miterlimit="10"/>
<path fill-rule="evenodd" clip-rule="evenodd" d="M723.102 4V77.3607C713.957 69.8034 702.653 64.7123 690.148 63.167C687.502 62.8389 684.84 62.6748 682.178 62.6748C679.516 62.6748 676.854 62.8389 674.208 63.167C642.041 67.1415 617.84 94.5763 617.84 127.012C617.84 159.448 642.036 186.883 674.208 190.858C676.854 191.186 679.516 191.35 682.178 191.35C684.84 191.35 687.502 191.186 690.148 190.858C722.314 186.883 746.515 159.448 746.515 127.012V4H723.102ZM688.925 167.376C686.692 167.747 684.437 167.932 682.172 167.932C679.907 167.932 677.653 167.747 675.419 167.376L674.89 167.286C655.462 163.804 641.248 146.811 641.248 127.007C641.248 107.024 655.722 89.9033 675.419 86.638C677.653 86.2675 679.907 86.0823 682.172 86.0823C684.432 86.0823 686.692 86.2675 688.925 86.638L689.423 86.7227C708.866 90.1944 723.097 107.193 723.097 127.007C723.102 146.996 708.628 164.111 688.925 167.376Z" fill="#EEEEEE" stroke="#EEEEEE" stroke-width="8" stroke-miterlimit="10"/>
<path fill-rule="evenodd" clip-rule="evenodd" d="M478.131 76.2071C468.986 68.6498 457.687 63.5375 445.176 61.9922C442.53 61.6641 439.868 61.5 437.206 61.5C434.544 61.5 431.882 61.6641 429.236 61.9922C397.07 65.9666 372.869 93.4015 372.869 125.838C372.869 158.274 397.065 185.708 429.236 189.683C431.882 190.011 434.544 190.175 437.206 190.175C439.868 190.175 442.53 190.011 445.176 189.683C457.687 188.138 468.986 183.041 478.131 175.489V190.175H505.19V63.564H478.131V76.2071ZM443.959 166.207C441.726 166.577 439.471 166.762 437.206 166.762C434.941 166.762 432.687 166.577 430.453 166.207L429.924 166.117C410.496 162.634 396.281 145.641 396.281 125.838C396.281 105.854 410.756 88.7338 430.453 85.4685C432.687 85.098 434.941 84.9128 437.206 84.9128C439.466 84.9128 441.726 85.098 443.959 85.4685L444.457 85.5531C463.9 89.0248 478.131 106.023 478.131 125.838C478.131 145.826 463.657 162.941 443.959 166.207Z" fill="#EEEEEE" stroke="#EEEEEE" stroke-width="8" stroke-miterlimit="10"/>
<path d="M17.2156 48.1741C26.7235 48.1741 34.4312 40.4664 34.4312 30.9585C34.4312 21.4506 26.7235 13.7429 17.2156 13.7429C7.70769 13.7429 0 21.4506 0 30.9585C0 40.4664 7.70769 48.1741 17.2156 48.1741Z" fill="#EEEEEE"/>
<path d="M352.779 123.461C352.779 122.937 352.747 122.419 352.742 121.895H351.213L352.779 123.461Z" fill="#62C5E3"/>
<path d="M320.423 121.895C320.486 122.916 320.528 123.938 320.528 124.975C320.528 152.251 298.418 174.362 271.141 174.362C243.865 174.362 221.754 152.251 221.754 124.975C221.754 97.6987 243.865 75.5878 271.141 75.5878V41.8287C226.052 41.8287 189.504 78.3768 189.504 123.467C189.504 168.556 226.052 205.104 271.141 205.104C316.226 205.104 352.779 168.556 352.779 123.467L351.213 121.9H320.423V121.895Z" fill="#EEEEEE"/>
<path d="M286.881 14.6586V107.41L370.244 61.0343L286.881 14.6586Z" fill="#EEEEEE" stroke="#EEEEEE" stroke-width="6" stroke-miterlimit="10"/>
<path d="M169.674 114.591C169.674 88.1938 150.379 65.559 124.552 61.5422C121.875 61.1241 119.165 60.9177 116.455 60.9177C113.746 60.9177 111.036 61.1241 108.358 61.5422C100.256 62.8018 92.7939 65.8977 86.3691 70.3696V60.9177H61.321V190.18H86.3691V186.539H86.6443V114.591C86.6443 100.572 96.4137 88.3261 109.941 85.2566C112.079 84.7698 114.264 84.5263 116.455 84.5263C118.646 84.5263 120.832 84.7698 122.97 85.2566C136.497 88.3314 146.266 100.572 146.266 114.591V190.175H169.679V114.591H169.674Z" fill="#EEEEEE" stroke="#EEEEEE" stroke-width="8" stroke-miterlimit="10"/>
</mask>
<g mask="url(#mask0)">
<rect x="-13.4055" y="-6.05408" width="769.975" height="215.325" fill="url(#paint0_linear)"/>
</g>
<defs>
<linearGradient id="paint0_linear" x1="371.582" y1="-6.05408" x2="371.582" y2="209.271" gradientUnits="userSpaceOnUse">
<stop stop-color="white"/>
<stop offset="1" stop-color="#ECECEC"/>
</linearGradient>
</defs>
</svg>
